<?xml version="1.0" encoding="UTF-8"?>
<svg xmlns="http://www.w3.org/2000/svg" version="1.1" viewBox="0 0 208.1 229.8">
  <!-- Generator: Adobe Illustrator 28.7.1, SVG Export Plug-In . SVG Version: 1.2.0 Build 142)  -->
  <g>
    <g id="Layer_1">
      <path id="aClziQ" d="M.1,114.9c0-28,.3-56.1-.1-84.1C-.2,16.7,10.3,0,30.8,0c30.7,0,61.4,0,92.1,0,18.3,0,36.6,0,54.9,0,10.4,0,18.9,4.1,25,12.6,3.5,4.9,5.4,10.4,5.4,16.6,0,57.1,0,114.1,0,171.2,0,14.8-11.5,27.4-26.1,28.9-2.3.2-4.6.3-7,.3-48,0-96,0-144,0-13,0-22.7-5.7-28.4-17.6-1.7-3.6-2.5-7.5-2.5-11.6,0-28.5,0-57.1,0-85.6ZM16.5,114.9c0,28,0,55.9,0,83.9,0,8.9,5.5,14.3,14.3,14.3,48.9,0,97.8,0,146.7,0,1.2,0,2.5,0,3.7-.3,6.5-1.4,10.5-6.6,10.6-13.8,0-13.9,0-27.8,0-41.7,0-42,0-84,0-126,0-9.2-5.4-14.6-14.6-14.6-48.7,0-97.5,0-146.2,0-1.3,0-2.7,0-4,.3-6.6,1.4-10.6,6.6-10.6,14.1,0,28,0,55.9,0,83.9ZM64,118.7c.5-12.1,5.5-21.9,14.8-29.6,1.6-1.4,1.4-2,.1-3.4-9.6-10.5-12.4-22.7-7.4-36,4.9-13.1,14.8-20.8,28.6-22.6,19.3-2.5,36.8,11.8,38.7,31.2,1,10.7-2.3,19.8-9.6,27.5-1.3,1.4-1.3,2,.2,3.2,9.5,8,14.8,18.2,14.8,30.8,0,4.8-3.3,8.4-7.8,8.6-4.4.2-8.1-3.2-8.5-8-1-12-7.1-20.1-17.3-23-13.9-4-28.1,5.5-29.8,19.7-.1,1.1-.3,2.1-.4,3.2-.3,4.7-4,8.2-8.4,8.1-4.5-.2-7.9-3.8-7.9-8.6,0-.4,0-.8,0-1.2ZM103.9,79.8c10.4,0,18.5-7.9,18.6-18.1,0-10.2-8.1-18.3-18.3-18.5-9.7-.2-18.3,8.3-18.3,18.3,0,10.2,7.9,18.3,18.1,18.3ZM149.6,160.5c.8,0,1.7,0,2.5,0,4.3-.2,7.8-3.4,8-7.4.3-4.6-2.3-8.1-6.8-9-1.2-.2-2.5-.3-3.7-.3-30.3,0-60.7,0-91,0-1.5,0-3,0-4.5.4-3.5,1-5.9,3.9-6.1,7.3-.2,5.3,3.3,8.9,9.1,8.9,15.6,0,31.3,0,46.9,0,15.2,0,30.4,0,45.6,0ZM132.8,192.4c6.3,0,12.6,0,19,0,4.7,0,8.3-3.4,8.5-7.8.2-4.7-2.8-8.2-7.7-8.8-.9-.1-1.8,0-2.7,0-30.4,0-60.8,0-91.3,0-1.5,0-3,0-4.5.4-3.5,1-5.9,3.9-6,7.4-.2,5.2,3.4,8.8,8.9,8.8,15.7,0,31.4,0,47.1,0,9.6,0,19.1,0,28.7,0Z"/>
    </g>
  </g>
</svg>