<svg xmlns="http://www.w3.org/2000/svg" viewBox="0 0 167.29 114.04"><defs><style>.cls-1{fill:#fff;}.cls-2{fill:#010101;}.cls-3{fill:none;}</style></defs><title>b-and-h-photo-logo</title><g id="b_h_photo" data-name="b&amp;h photo"><path class="cls-1" d="M238.43,129.86H71.13v-114h167.3Zm-166-1.27H237.15V17.1H72.41Z" transform="translate(-71.13 -15.82)"/><path class="cls-2" d="M154.78,72.91" transform="translate(-71.13 -15.82)"/><ellipse class="cls-1" cx="115.96" cy="95.52" rx="1.4" ry="3.06"/><polygon class="cls-1" points="126.56 93.22 126.3 94.63 125.92 97.06 127.32 97.06 126.81 94.63 126.56 93.22"/><path class="cls-1" d="M179,108.28h-.25v2.43h.38a1.15,1.15,0,0,0,1.28-1.28C180.45,108.79,180.06,108.28,179,108.28Z" transform="translate(-71.13 -15.82)"/><ellipse class="cls-1" cx="42.27" cy="95.52" rx="1.4" ry="3.06"/><path class="cls-1" d="M172.78,108.28h-.38v2.43c1,0,1.53-.26,1.53-1.28A1,1,0,0,0,172.78,108.28Z" transform="translate(-71.13 -15.82)"/><path class="cls-1" d="M141.63,108.28v6c1.66.13,2-1.78,2-2.93S143.29,108.28,141.63,108.28Z" transform="translate(-71.13 -15.82)"/><path class="cls-1" d="M155.16,108.28c-1.28,0-1.4,2.3-1.4,3.07s0,3.06,1.4,3.06,1.41-2.3,1.41-3.06S156.44,108.28,155.16,108.28Z" transform="translate(-71.13 -15.82)"/><ellipse class="cls-1" cx="151.71" cy="95.52" rx="1.4" ry="3.06"/><path class="cls-1" d="M85.44,108.28h-.39v2.43c1,0,1.53-.26,1.53-1.28A1,1,0,0,0,85.44,108.28Z" transform="translate(-71.13 -15.82)"/><path class="cls-1" d="M211.22,108.28v6c1.66.13,2.05-1.78,2.05-2.93S212.88,108.28,211.22,108.28Z" transform="translate(-71.13 -15.82)"/><path class="cls-1" d="M79.56,101.13v20.31H230V101.13Zm6,11h-.38v3.83h-2v-9.19h2c.38,0,3.45-.26,3.45,2.68C88.63,111.22,87.35,112.11,85.56,112.11Zm10.09,3.83h-2v-4h-2v4h-2v-9.19h2v3.58h2v-3.58h2Zm4.47.13c-1.79,0-3.57-1.27-3.57-4.72s1.78-4.73,3.57-4.73,3.58,1.28,3.58,4.73S101.91,116.07,100.12,116.07Zm9.32-7.66h-1.53v7.53h-2v-7.53h-1.53v-1.66h5.1Zm4,7.66c-1.79,0-3.57-1.27-3.57-4.72s1.78-4.73,3.57-4.73,3.58,1.28,3.58,4.73S115.19,116.07,113.4,116.07Zm11-3.32h-3.44v-1.66h3.44Zm8.18,3.07H130.9l-2.94-9.2h2.3v.13l1.15,4.47c.13.51.25,1,.38,1.53.13-.51.13-1,.26-1.66l1.27-4.47h2.05Zm5.74.12h-2v-9.19h2Zm3.07.13h-1.79v-9.32h1.53c.39,0,4.6-.51,4.6,4.72C145.71,114.16,144.56,116.07,141.37,116.07Zm9.32-9.32v1.66h-2v2h1.79v1.66h-1.79v2h2v1.66h-4.08v-9.2h4.08Zm4.47,9.32c-1.79,0-3.57-1.27-3.57-4.72s1.78-4.73,3.57-4.73,3.58,1.28,3.58,4.73S157,116.07,155.16,116.07ZM166,112.75H162.7v-1.66H166Zm6.76-.64h-.38v3.83h-2v-9.19h2c.38,0,3.45-.26,3.45,2.68C175.85,111.22,174.57,112.11,172.78,112.11Zm7.92,4-1.79-4.21v4.21h-2v-9.32h2c1.28,0,3.58.13,3.58,2.68a2.52,2.52,0,0,1-1.4,2.43l1.78,4.21Zm6.39,0c-1.79,0-3.58-1.27-3.58-4.72s1.79-4.73,3.58-4.73,3.57,1.28,3.57,4.73S188.88,116.07,187.09,116.07Zm12-.13-.38-1.53h-2l-.39,1.53h-2l2.3-9.19h2.3l2.42,9.19Zm8.94-2.42c0,1-.13,2.68-3.06,2.68-1.92,0-2.94-.77-2.94-2.55v-6.9h1.91v6c0,.64-.12,1.79,1,1.79s1-.64,1-1.41v-6.38h2Zm2.94,2.55h-1.79v-9.32h1.53c.39,0,4.6-.51,4.6,4.72C215.31,114.16,214.16,116.07,211,116.07Zm7.28-.13H216.2v-9.19h2.05Zm4.6.13c-1.79,0-3.58-1.27-3.58-4.72s1.79-4.73,3.58-4.73,3.57,1.28,3.57,4.73S224.63,116.07,222.85,116.07Z" transform="translate(-71.13 -15.82)"/><ellipse class="cls-1" cx="28.99" cy="95.52" rx="1.4" ry="3.06"/><path class="cls-3" d="M106.51,52.22c3.83,0,8.17-.38,8.17-5.36,0-5.37-5-5-8.81-5h-1.79V52.35h2.43Z" transform="translate(-71.13 -15.82)"/><path class="cls-3" d="M106.63,67.54h-2.55V79.68H107c4.34,0,10.6-.13,10.6-6.13S110.85,67.54,106.63,67.54Z" transform="translate(-71.13 -15.82)"/><path class="cls-1" d="M131,73c0-4.1,2.37-6.83,5.6-9a21.93,21.93,0,0,0-7.39-4.26v-.63c6.38-2,9.58-8.3,9.58-14.69,0-16.86-14.44-20.18-28.48-20.18H79.56V97h35.89c10.8,0,22.42-3.65,25.75-13.83C135.3,81.79,131,77.74,131,73ZM104.08,41.88h1.79c3.83,0,8.81-.39,8.81,5,0,5-4.34,5.36-8.17,5.36v.13h-2.43ZM107,79.68h-2.94V67.54h2.55c4.22,0,11-.12,11,6S111.36,79.68,107,79.68Z" transform="translate(-71.13 -15.82)"/><path class="cls-1" d="M204.46,24.25V48.77H188.24V24.25H162.7V69.94c1.57-1.37,4.59-4.06,4.59-4.06l5.11,3.2s-5.36,4.59-6.26,5.49L175,83.25h-8.82L162.7,79.8V97h25.54V71.76h16.22V97.17H230V24.25Z" transform="translate(-71.13 -15.82)"/><path class="cls-3" d="M148.65,56.69a7.42,7.42,0,0,0,1-.51c2.43-1.41,4.6-2.56,4.6-4.73,0-1.91-2.3-3.06-4.47-3.06-2.56,0-4.6,1.53-4.6,3.32,0,1.28,1,2.43,2,3.57Z" transform="translate(-71.13 -15.82)"/><path class="cls-3" d="M156.31,73.8c-1.15-1-9.07-8.81-9.7-9.45a19.29,19.29,0,0,1-1.92.9A31.61,31.61,0,0,0,139.88,68a17.74,17.74,0,0,1,2.26,9c0,.28,0,.55,0,.83a9.18,9.18,0,0,0,2.84.45C149.29,78.27,153.12,75.85,156.31,73.8Z" transform="translate(-71.13 -15.82)"/><path class="cls-1" d="M139.88,68c-1.59,1.2-2.72,2.61-2.72,4.38,0,2.33,2.13,4.5,5,5.42,0-.28,0-.55,0-.83A17.74,17.74,0,0,0,139.88,68Z" transform="translate(-71.13 -15.82)"/><path class="cls-1" d="M161.16,77.25C157,80.19,151.84,83,145.84,83a18.9,18.9,0,0,1-4.42-.54c-.07.26-.14.51-.22.75a19.92,19.92,0,0,0,4.64.55c6,0,11.11-2.81,15.32-5.49l1.54,1.53V78.74Z" transform="translate(-71.13 -15.82)"/><path class="cls-1" d="M137.2,64.55A63.56,63.56,0,0,1,143.54,61l.64-.25c-2.17-2.3-4.73-4.73-4.73-7.79,0-4.6,4.47-7.79,10.48-7.79,5.36,0,10.21,2.93,10.21,7.15s-4.34,6.77-8.43,9.06l10.09,9.84.9-.79v-.52l-.77.67c-.77-.77-7.79-7.54-8.94-8.68,4.09-2.3,8-4.73,8-9.2s-4.86-7.92-11-7.92c-6.76-.25-11.49,3.32-11.49,8.18,0,2.93,2.3,5.36,4.34,7.53A55.25,55.25,0,0,0,136.63,64Z" transform="translate(-71.13 -15.82)"/><path class="cls-1" d="M131.79,73c0-3.84,2.25-6.38,5.41-8.49l-.57-.54c-3.23,2.2-5.6,4.93-5.6,9,0,4.7,4.27,8.75,10.17,10.17.08-.24.15-.49.22-.75C136,81.17,131.79,77.59,131.79,73Z" transform="translate(-71.13 -15.82)"/><path class="cls-1" d="M166.14,83.25H175l-8.82-8.68c.9-.9,6.26-5.49,6.26-5.49l-5.11-3.2s-3,2.69-4.59,4.06v.52l4.47-3.94L171,69l-6.13,5.36L173,82.23h-6.77l-3.57-3.49V79.8Z" transform="translate(-71.13 -15.82)"/><path class="cls-1" d="M147.37,56.31l1.15,1.15.38-.13c2.69-1.53,6-2.94,6-5.88,0-2.17-2.43-3.7-5.24-3.7s-5.24,1.79-5.24,4C144.43,53.5,146,54.9,147.37,56.31Zm2.43-7.92c2.17,0,4.47,1.15,4.47,3.06,0,2.17-2.17,3.32-4.6,4.73a7.42,7.42,0,0,1-1,.51l-1.41-1.41c-1-1.14-2-2.29-2-3.57C145.2,49.92,147.24,48.39,149.8,48.39Z" transform="translate(-71.13 -15.82)"/><path class="cls-1" d="M144.69,65.25a19.29,19.29,0,0,0,1.92-.9c.63.64,8.55,8.43,9.7,9.45-3.19,2-7,4.47-11.36,4.47a9.18,9.18,0,0,1-2.84-.45c0,.22,0,.44,0,.66a9.94,9.94,0,0,0,2.86.43c4.85,0,9.06-2.81,12.51-5.11L146.73,63.33l-2.3,1.28a38.19,38.19,0,0,0-4.86,2.89c.11.17.21.34.31.52A31.61,31.61,0,0,1,144.69,65.25Z" transform="translate(-71.13 -15.82)"/><path class="cls-1" d="M136.52,72.4c0,2.68,2.4,5.12,5.57,6.08,0-.22,0-.44,0-.66-2.82-.92-5-3.09-5-5.42,0-1.77,1.13-3.18,2.72-4.38-.1-.18-.2-.35-.31-.52C137.81,68.81,136.52,70.38,136.52,72.4Z" transform="translate(-71.13 -15.82)"/></g></svg>