<svg xmlns="http://www.w3.org/2000/svg" viewBox="0 0 200.76 50.91"><defs><style>.cls-1{fill:#fff;fill-rule:evenodd;}</style></defs><title>nikon-logo</title><g id="nikon"><path class="cls-1" d="M202.9,67.36a12.36,12.36,0,0,0-8.31-7.16c-9.83-2.63-22.25-1.59-29,6.61-3.91,5-6.23,12.63-3.32,19,1.41,3.74,5.39,6.44,9.13,7.13,8.24,1.08,18.87,1.53,25.48-4.5a20,20,0,0,0,6-21.08ZM182.58,82.52a3.88,3.88,0,0,1-3.28-.13c-2-1.08-1.32-3.5-1.08-5.13.94-3,2-7.23,5.71-7.82a3.14,3.14,0,0,1,3.29,1.83c.35,4.37-.9,8.8-4.64,11.25Z" transform="translate(-49.94 -42.68)"/><polygon class="cls-1" points="43.37 0 36.45 20.08 31.19 0 17.17 0 0 49.05 16.34 49.05 22.88 30.36 27.73 49.05 42.54 49.05 59.71 0 43.37 0"/><path class="cls-1" d="M120.42,57.32c2.87-.41,5.92-1.35,7.51-4.18a7,7,0,0,0-.66-7c-2.22-2.38-5.3-2.59-8.58-2.42-3,.42-6.06,1.94-7.13,5.05-.49,2-.39,4.37.93,5.92,1.94,2.36,5.05,2.7,7.93,2.63Z" transform="translate(-49.94 -42.68)"/><polygon class="cls-1" points="58.57 17.93 47.63 49.08 63.14 49.08 74.11 17.93 58.57 17.93"/><polygon class="cls-1" points="118.59 17.86 100.59 17.86 91.59 28.42 101.42 0 85.64 0 68.43 49.05 84.25 49.05 88.68 36.73 91.17 49.05 107.65 49.05 104.88 34.09 118.59 17.86"/><path class="cls-1" d="M239.49,60.2a20.61,20.61,0,0,0-13.85,5.12l1.8-4.71H211.11L200.17,91.8h16.34l5.26-15c.83-2.36,2.21-3.46,4.57-3.46s2.9,2.35,2.21,4.29l-5,14.12h15.78l7.06-20.21c1.94-5.58,0-11.39-6.92-11.39Z" transform="translate(-49.94 -42.68)"/><path class="cls-1" d="M247.45,85.26a3.26,3.26,0,1,0,3.25,3.25,3.24,3.24,0,0,0-3.25-3.25Zm0,6.12a2.87,2.87,0,1,1,2.87-2.87,2.86,2.86,0,0,1-2.87,2.87Z" transform="translate(-49.94 -42.68)"/><path class="cls-1" d="M249.11,87.65a.94.94,0,0,0-.41-.8,1.65,1.65,0,0,0-.9-.17h-1.6v3.63h.45V88.62h.84l1,1.69H249l-1.1-1.69c.69,0,1.17-.25,1.17-1Zm-1.73.65h-.69V87h1c.45,0,.93.07.93.62,0,.76-.79.69-1.28.69Z" transform="translate(-49.94 -42.68)"/></g></svg>