<svg xmlns="http://www.w3.org/2000/svg" viewBox="0 0 258.98 56.21"><defs><style>.cls-1{font-size:26.09px;font-family:ShermanSans-Book, Sherman Sans;letter-spacing:0em;}.cls-1,.cls-10{fill:#fff;}.cls-2{letter-spacing:-0.01em;}.cls-3{letter-spacing:-0.02em;}.cls-4{letter-spacing:-0.01em;}.cls-5{letter-spacing:-0.01em;}.cls-6{letter-spacing:-0.03em;}.cls-7{letter-spacing:-0.01em;}.cls-8{letter-spacing:-0.02em;}.cls-9{letter-spacing:0em;}</style></defs><title>syracuse-university-bookstore-logo</title><g id="SU_Bookstore" data-name="SU Bookstore"><text class="cls-1" transform="translate(44.9 49.51)">B<tspan class="cls-2" x="14.71" y="0">o</tspan><tspan class="cls-3" x="27.52" y="0">o</tspan><tspan class="cls-4" x="40.01" y="0">k</tspan><tspan class="cls-5" x="52.34" y="0">s</tspan><tspan class="cls-6" x="61.73" y="0">t</tspan><tspan class="cls-7" x="69.35" y="0">o</tspan><tspan class="cls-8" x="82.11" y="0">r</tspan><tspan class="cls-9" x="89.8" y="0">e</tspan></text><path id="path32" class="cls-10" d="M68.6,61.42l-1.08-5.06,1.37-.5c.85,1.86,2.5,4.22,5.53,4.22,1.9,0,3.82-1,3.82-3.49,0-4.66-9.87-3.67-9.87-9.58,0-3.5,2.68-5.25,5.76-5.25a4.67,4.67,0,0,1,3.61,1.37l.35-.93h1.17l1.16,4.57-1.37.5c-.81-1.78-2.5-3.73-5-3.73C72,43.54,71,44.79,71,46.37c0,4.22,9.87,3.14,9.87,9.55,0,4.31-3.67,5.94-6.58,5.94a7.27,7.27,0,0,1-4.2-1.34l-.34.9H68.6" transform="translate(-20.75 -41.76)"/><path id="path34" class="cls-10" d="M85.87,67.83a1.31,1.31,0,0,1-1.92-.7l2.94-5.71-4.43-9.84c-.35-.79-.52-1-1.72-1.28V49.19h5.33V50.3l-1.42.35L88,58.13l3.29-7.51-1.37-.32V49.19h4.45V50.3a2.12,2.12,0,0,0-1.66,1.25L88.08,61.71l-2.21,6.12" transform="translate(-20.75 -41.76)"/><path id="path36" class="cls-10" d="M102.82,52a1.24,1.24,0,0,0-1.16-.88,3.64,3.64,0,0,0-2.45,1.55V60l1.46.35v1.1h-5v-1.1L96.88,60V51.67l-1.46-.41v-1a3.55,3.55,0,0,0,2.77-1.66l1,.17-.15,2.63c.67-1.17,1.78-2.63,3.53-2.63a1.64,1.64,0,0,1,1.75,1.61A1.55,1.55,0,0,1,102.82,52" transform="translate(-20.75 -41.76)"/><path id="path38" class="cls-10" d="M115.84,59.94l.29.55a2.72,2.72,0,0,1-2.24,1.28c-1.28,0-1.86-.75-1.89-1.51a4.12,4.12,0,0,1-3.56,1.6c-2.44,0-3.55-1.6-3.55-2.91,0-2,1.28-3.18,3.55-3.58l3.5-.65V52.1a1.76,1.76,0,0,0-1.87-1.83,2.54,2.54,0,0,0-2.12,1c.38,1.78-1.23,2.68-2.71,1.86.06-2.65,2.65-4.37,5.1-4.37,2.85,0,3.93,1.66,3.93,3.82v6.79a.74.74,0,0,0,.73.81,1.54,1.54,0,0,0,.84-.23m-3.9-1.69V56.12l-2.86.56c-.75.14-2,.58-2,1.89a1.77,1.77,0,0,0,2,1.75,3,3,0,0,0,2.83-2.07" transform="translate(-20.75 -41.76)"/><path id="path40" class="cls-10" d="M127.37,51.08a1.58,1.58,0,0,1-1.66,1.43,2.75,2.75,0,0,0-2.79-1.95c-2.19,0-3.9,1.83-3.9,4.95,0,2.59,1.66,4.28,3.9,4.28a4.58,4.58,0,0,0,3.75-1.86l.62.38c-.44,1.89-2.19,3.55-5.27,3.55-2.89,0-5.45-2-5.45-5.77a7.2,7.2,0,0,1,7.13-7.34c1.75,0,3.67.73,3.67,2.33" transform="translate(-20.75 -41.76)"/><path id="path42" class="cls-10" d="M129.91,50.65l-1.46-.35V49.19h3.79v8.65c0,1.25.61,1.92,1.75,1.92a6.33,6.33,0,0,0,3.93-1.69V50.65l-1.46-.35V49.19h3.79V59.3h1.45v1.1a7,7,0,0,0-2.76,1.29l-1-.18.14-2.1a7.38,7.38,0,0,1-4.92,2.45A3,3,0,0,1,129.91,59V50.65" transform="translate(-20.75 -41.76)"/><path id="path44" class="cls-10" d="M144.18,61.42h-.73l-.58-3.55.87-.2a4.6,4.6,0,0,0,3.93,2.79,2,2,0,0,0,2.25-1.86c0-2.71-6.61-2.24-6.61-6.35a3.64,3.64,0,0,1,3.78-3.5,4.59,4.59,0,0,1,2.74.82l.12-.38h.9l.55,3.12-.87.2a3.63,3.63,0,0,0-3.18-2.36c-1.28,0-1.83.79-1.83,1.49,0,2.47,6.55,1.86,6.55,6.17a4.21,4.21,0,0,1-4.43,4,4.61,4.61,0,0,1-3.17-1.34l-.29.9" transform="translate(-20.75 -41.76)"/><path id="path46" class="cls-10" d="M156,55.77c.11,2.25,1.6,4,3.64,4a4.42,4.42,0,0,0,3.9-2.12l.61.37c-.49,2.25-2.39,3.82-5.21,3.82s-5.36-2.07-5.36-5.82c0-5.1,3.06-7.29,5.88-7.29,2.65,0,4.87,1.58,4.87,5.3l-.47.7Zm.05-1.51,5.68-.76c0-2.3-1.16-3.26-2.39-3.26-2.18,0-3.2,1.83-3.29,4" transform="translate(-20.75 -41.76)"/><path id="path48" class="cls-10" d="M187.37,54.46c0,4.78-2.79,7.55-7.66,7.55s-7.66-2.77-7.66-7.55V43.8l-1.51-.32V42.2h5.76v1.28l-1.51.32V54.08c0,3.7,1.54,6,5.45,6,3.11,0,5.15-2.13,5.15-5.77V43.8l-1.51-.32V42.2h5v1.28l-1.52.32V54.46" transform="translate(-20.75 -41.76)"/><path id="path50" class="cls-10" d="M189.5,61.42v-1.1l1.16-.29V51.67l-1.45-.41v-1A3.54,3.54,0,0,0,192,48.58l1,.17-.14,2.45a7.38,7.38,0,0,1,4.92-2.45A3,3,0,0,1,201,51.64V60l1.46.35v1.1h-5v-1.1l1.16-.29V52.77c0-1.25-.61-1.92-1.75-1.92A6.33,6.33,0,0,0,193,52.54V60l1.46.35v1.1H189.5" transform="translate(-20.75 -41.76)"/><path id="path52" class="cls-10" d="M204.06,61.42v-1.1l1.31-.32V51.67l-1.45-.41v-1a3.54,3.54,0,0,0,2.76-1.66l1,.17V60l1.31.32v1.1Zm2.62-17.73a1.46,1.46,0,1,1-1.45,1.45,1.44,1.44,0,0,1,1.45-1.45" transform="translate(-20.75 -41.76)"/><path id="path54" class="cls-10" d="M209.33,49.19h5.33V50.3l-1.42.35,3.34,7.48,3.3-7.51-1.37-.32V49.19H223V50.3a2.11,2.11,0,0,0-1.66,1.25l-4.63,10.16h-1l-4.57-10.13c-.38-.79-.52-1-1.72-1.28V49.19" transform="translate(-20.75 -41.76)"/><path id="path56" class="cls-10" d="M225.26,55.77c.12,2.25,1.61,4,3.64,4a4.44,4.44,0,0,0,3.91-2.12l.61.37a5,5,0,0,1-5.21,3.82c-2.89,0-5.36-2.07-5.36-5.82,0-5.1,3.05-7.29,5.88-7.29,2.65,0,4.86,1.58,4.86,5.3l-.46.7Zm.06-1.51L231,53.5c0-2.3-1.16-3.26-2.39-3.26-2.18,0-3.2,1.83-3.29,4" transform="translate(-20.75 -41.76)"/><path id="path58" class="cls-10" d="M242.13,52a1.25,1.25,0,0,0-1.17-.88,3.64,3.64,0,0,0-2.44,1.55V60l1.45.35v1.1H235v-1.1l1.17-.29V51.67l-1.46-.41v-1a3.55,3.55,0,0,0,2.77-1.66l1,.17-.15,2.63c.67-1.17,1.78-2.63,3.52-2.63a1.63,1.63,0,0,1,1.75,1.61A1.55,1.55,0,0,1,242.13,52" transform="translate(-20.75 -41.76)"/><path id="path60" class="cls-10" d="M245.51,61.42h-.73l-.58-3.55.87-.2A4.6,4.6,0,0,0,249,60.46a2,2,0,0,0,2.24-1.86c0-2.71-6.61-2.24-6.61-6.35a3.64,3.64,0,0,1,3.79-3.5,4.64,4.64,0,0,1,2.74.82l.11-.38h.91l.55,3.12-.88.2a3.6,3.6,0,0,0-3.17-2.36c-1.28,0-1.83.79-1.83,1.49,0,2.47,6.55,1.86,6.55,6.17a4.21,4.21,0,0,1-4.43,4,4.59,4.59,0,0,1-3.17-1.34l-.29.9" transform="translate(-20.75 -41.76)"/><path id="path62" class="cls-10" d="M254.86,61.42v-1.1l1.31-.32V51.67l-1.46-.41v-1a3.55,3.55,0,0,0,2.77-1.66l1,.17V60l1.31.32v1.1Zm2.62-17.73A1.46,1.46,0,1,1,256,45.14a1.44,1.44,0,0,1,1.46-1.45" transform="translate(-20.75 -41.76)"/><path id="path64" class="cls-10" d="M262.28,59.27V50.65h-1.89V49.54c1.6-.29,2.65-1.75,3.2-3.32l1,.18v2.79h3.21v1.46h-3.21v8.12c0,.91.41,1.4,1.17,1.4a1.93,1.93,0,0,0,1.37-.7l.61.47A3,3,0,0,1,265,61.86a2.48,2.48,0,0,1-2.71-2.59" transform="translate(-20.75 -41.76)"/><path id="path66" class="cls-10" d="M271.22,67.83a1.31,1.31,0,0,1-1.92-.7l2.94-5.71-4.42-9.84c-.35-.79-1.05-.93-1.87-.93h-2.47V49.19h7.95V50.3l-1.43.35,3.35,7.48,3.29-7.51-1.37-.32V49.19h4.46V50.3a2.11,2.11,0,0,0-1.66,1.25l-4.63,10.16-2.22,6.12" transform="translate(-20.75 -41.76)"/><path id="path68" class="cls-10" d="M56.12,91.65a.94.94,0,0,1-.67.27.91.91,0,0,1-.66-.27.9.9,0,0,1-.27-.66.87.87,0,0,1,.28-.66.89.89,0,0,1,.65-.27.94.94,0,0,1,.67.27.94.94,0,0,1,0,1.32m-.67-1.74a1.05,1.05,0,0,0-.76.32,1.08,1.08,0,0,0,.76,1.84,1.06,1.06,0,0,0,.77-.32,1,1,0,0,0,.31-.76,1,1,0,0,0-.31-.76,1.06,1.06,0,0,0-.77-.32" transform="translate(-20.75 -41.76)"/><path id="path70" class="cls-10" d="M55.62,90.93a.58.58,0,0,1-.21,0h-.19v-.42h.18a.56.56,0,0,1,.26,0,.19.19,0,0,1,.08.17.17.17,0,0,1-.12.18m.32-.2a.29.29,0,0,0-.18-.3,1.22,1.22,0,0,0-.33,0H55v1.18h.2v-.46h.17a.49.49,0,0,1,.24,0,.29.29,0,0,1,.11.27v.13h.2s0,0,0-.06a.34.34,0,0,1,0-.09v-.09a.32.32,0,0,0-.06-.18.31.31,0,0,0-.2-.12.58.58,0,0,0,.17,0,.26.26,0,0,0,.11-.24" transform="translate(-20.75 -41.76)"/><path id="path72" class="cls-10" d="M44.13,57.23H56.21V48.42l-6.94-6.66H27.46l-6.71,6.66V64.57l6.44,6.52H44.13v9.36H32.93V75.11H20.75v8.81l6.71,6.66H49.27l6.94-6.66V67.77l-6.44-6.52H32.93V51.89h11.2v5.34" transform="translate(-20.75 -41.76)"/><path id="path74" class="cls-10" d="M44.13,57.23H56.21" transform="translate(-20.75 -41.76)"/><path id="path76" class="cls-10" d="M32.93,75.11H20.75" transform="translate(-20.75 -41.76)"/><path id="path78" class="cls-10" d="M44.13,57.23H56.21" transform="translate(-20.75 -41.76)"/></g></svg>