<svg xmlns="http://www.w3.org/2000/svg" viewBox="0 0 260.09 40.88"><defs><style>.cls-1{fill:#fff;}</style></defs><title>tamron-logo</title><g id="tamron"><path class="cls-1" d="M145,50.35V89.53h-9.26V62.93l-.12,0c-.33,1-.66,1.89-1,2.83Q131.81,74,129,82.33a.59.59,0,0,1-.68.5c-2.8,0-5.59,0-8.39,0-.43,0-.57-.16-.7-.54q-3.17-9.47-6.36-18.93a.89.89,0,0,0-.24-.4V89.52H103.4V50.35h13.18a.61.61,0,0,1,.71.51q3.31,9.9,6.66,19.8l.19.57c.1-.24.18-.39.23-.54q3.31-9.89,6.62-19.76a.73.73,0,0,1,.84-.59c4.17,0,8.34,0,12.51,0Z" transform="translate(-19.63 -49.47)"/><path class="cls-1" d="M255.48,89.54H246.2V50.37l.53,0h10a.73.73,0,0,1,.75.44Q263.76,62.42,270.09,74l.34.61V50.39h9.3V89.54l-.54,0h-10a.71.71,0,0,1-.74-.45q-6.32-11.64-12.65-23.26a1.26,1.26,0,0,0-.35-.44Z" transform="translate(-19.63 -49.47)"/><path class="cls-1" d="M185.7,76.14l6.76,13.43h-.61c-3,0-6.07,0-9.1,0a.74.74,0,0,1-.79-.48c-1.76-3.53-3.55-7-5.3-10.57a.73.73,0,0,0-.78-.48h-10.2V89.52h-9.29V50.38a2.53,2.53,0,0,1,.3,0c7.22,0,14.44,0,21.67,0a14,14,0,0,1,7.49,1.95,8.36,8.36,0,0,1,4,6.17,41,41,0,0,1,0,11.17A8.57,8.57,0,0,1,185.7,76.14Zm-20-16.8V69c.06,0,.09,0,.13,0,3.91,0,7.83,0,11.74-.1a2.88,2.88,0,0,0,3.11-2.53,26.69,26.69,0,0,0,0-4.47,2.5,2.5,0,0,0-1.95-2.29,9.64,9.64,0,0,0-2.34-.32c-3.39,0-6.78,0-10.18,0Z" transform="translate(-19.63 -49.47)"/><path class="cls-1" d="M199.32,69.9c.05-2.36.08-4.73.17-7.09a14.76,14.76,0,0,1,2.29-7.88,11.64,11.64,0,0,1,7.51-4.8,31.47,31.47,0,0,1,6.49-.64,54.38,54.38,0,0,1,8.27.32,14.06,14.06,0,0,1,7.22,2.78,11.27,11.27,0,0,1,4,7,43.36,43.36,0,0,1,.48,5.81c.09,2.36.12,4.73.05,7.09a54.06,54.06,0,0,1-.52,7.54c-.89,5.19-4,8.42-9.2,9.63a26.08,26.08,0,0,1-6.16.67c-2.46,0-4.91,0-7.35-.15a15.19,15.19,0,0,1-8.07-2.47,11.52,11.52,0,0,1-4.71-7.79,54.8,54.8,0,0,1-.46-9.5V69.9Zm9.45,0h-.09c0,1.17,0,2.35,0,3.52a29.73,29.73,0,0,0,.24,3.66,4.57,4.57,0,0,0,3.87,3.8,21.92,21.92,0,0,0,8.91.17,6.36,6.36,0,0,0,3.09-1.34,5,5,0,0,0,1.63-4c0-3.84.08-7.69,0-11.53-.07-3-1.32-4.54-4.09-5.21a20.79,20.79,0,0,0-9.12-.09c-2.59.53-4.38,1.89-4.44,5.25C208.74,66.05,208.77,68,208.77,69.91Z" transform="translate(-19.63 -49.47)"/><path class="cls-1" d="M95.93,89.57H89.82c-1,0-1.95,0-2.92,0-.41,0-.56-.14-.66-.51-.71-2.53-1.45-5-2.19-7.62h-.53c-4.77,0-9.54,0-14.31,0-.42,0-.57.13-.69.53-.65,2.34-1.34,4.67-2,7a.69.69,0,0,1-.81.6c-2.77,0-5.53,0-8.29,0h-.65L58,85.31q5-17.22,10-34.44c.11-.37.25-.54.69-.54q7.74,0,15.49,0a.53.53,0,0,1,.62.47q5.5,19.06,11,38.12C95.83,89.11,95.87,89.3,95.93,89.57ZM81.5,72.64l-3.85-13.3c-.71,0-1.37,0-2,0-.38,0-.55.08-.66.49q-1.36,4.77-2.77,9.53c-.31,1.08-.61,2.17-.93,3.29Z" transform="translate(-19.63 -49.47)"/><path class="cls-1" d="M56.42,50.38v8.94H42.65V89.54H33.38V59.35H19.63v-9Z" transform="translate(-19.63 -49.47)"/></g></svg>