<svg xmlns="http://www.w3.org/2000/svg" viewBox="0 0 206.95 66.42"><defs><style>.cls-1{fill:#fff;}</style></defs><title>think-tank-logo</title><g id="thinktank"><path class="cls-1" d="M56.93,103.76C51,103.76,46.54,98,46.54,91.59V49.88c0-6.63,4.48-12.36,10.39-12.36H243.11c5.91,0,10.38,5.73,10.38,12.36V91.59c0,6.62-4.47,12.17-10.38,12.35H56.93m-5-60.69a9.93,9.93,0,0,0-2.32,6.63V91.59a10.84,10.84,0,0,0,2.14,6.62,6.54,6.54,0,0,0,5,2.51H242.93a6.27,6.27,0,0,0,5-2.51,9.81,9.81,0,0,0,2.14-6.62V49.88A10.87,10.87,0,0,0,248,43.25a6.56,6.56,0,0,0-5-2.5h-186A5.82,5.82,0,0,0,51.91,43.25Z" transform="translate(-46.54 -37.52)"/><polyline class="cls-1" points="141.25 21.84 136.6 21.84 136.6 53.89 133.19 53.89 133.19 21.84 127.47 21.84 128.72 18.26 142.5 18.26 141.25 21.84"/><path class="cls-1" d="M199.79,92l3.4-.54-6.63-36.7-3,3-6.44,33.66,3.58.54,1.07-6.09h7L199.79,92m-7.52-9.13,2.86-17.37,3.05,17.37Z" transform="translate(-46.54 -37.52)"/><polyline class="cls-1" points="171.86 54.96 162.56 28.29 162.73 53.89 159.15 53.89 159.15 20.05 162.2 17.19 170.79 43.32 170.79 18.26 174.37 18.44 174.37 53.89 171.86 54.96"/><path class="cls-1" d="M228.07,91.41h-3.58V55.79h3.58Zm9,1.08L228.61,75.3l8.06-20.59,3,1.43L232,75.3l7.88,15.57Z" transform="translate(-46.54 -37.52)"/><path class="cls-1" d="M69.82,51.13v5.55h2.86v5.55H69.82v19a12.88,12.88,0,0,0,.35,3.94c.18.35,1.26.35,3,.35v5.73h-4.3a33.67,33.67,0,0,1-5.37-.36,6.23,6.23,0,0,1-2.87-1.43,5.13,5.13,0,0,1-1.43-2.5,43,43,0,0,1-.36-6.63V62.41H56.75V56.86h2.32V51.13H69.82" transform="translate(-46.54 -37.52)"/><path class="cls-1" d="M86.64,48.09v9.66a11,11,0,0,1,3-2,10.41,10.41,0,0,1,3.4-.72,8.58,8.58,0,0,1,4.83,1.43,6.55,6.55,0,0,1,2.51,3.4,32,32,0,0,1,.36,6.81V91.23H90V66.35a14.81,14.81,0,0,0-.35-3.94,1.43,1.43,0,0,0-1.44-.9,1.2,1.2,0,0,0-1.25.9A13.33,13.33,0,0,0,86.64,66V91.23H75.9V48.09H86.64" transform="translate(-46.54 -37.52)"/><path class="cls-1" d="M104,48.09h11.1v5.55H104ZM104,56h11.1V91.41H104Z" transform="translate(-46.54 -37.52)"/><path class="cls-1" d="M129.79,56l-.18,3.23a7.36,7.36,0,0,1,2.86-2.87,7.2,7.2,0,0,1,3.94-.89,7,7,0,0,1,4.48,1.25,5.85,5.85,0,0,1,2.33,3.22,28.92,28.92,0,0,1,.53,6.63V91.41H133V66.88a23.09,23.09,0,0,0-.18-4.47c-.18-.54-.54-.72-1.25-.72a1.41,1.41,0,0,0-1.43.9,22.8,22.8,0,0,0-.36,5v24H119.05V56h10.74" transform="translate(-46.54 -37.52)"/><polyline class="cls-1" points="124.06 18.44 119.77 32.58 125.32 53.89 115.11 53.89 111.71 38.31 111.71 53.89 100.97 53.89 100.97 10.56 111.71 10.56 111.71 28.82 115.11 18.44 124.06 18.44"/><path class="cls-1" d="M241,59.19a3.41,3.41,0,1,1,3.4,3.4,3.4,3.4,0,0,1-3.4-3.4m3.4,2.86a2.68,2.68,0,0,0,2.69-2.86,2.8,2.8,0,0,0-2.69-2.87,2.69,2.69,0,0,0-2.68,2.87A2.79,2.79,0,0,0,244.36,62.05Zm-.71-.89h-.54V57.22h1.43c.9,0,1.44.36,1.44,1.07a1,1,0,0,1-1.08,1.08L246,61.16h-.72l-1.07-1.62h-.72v1.62Zm.71-2.15c.54,0,.9,0,.9-.72,0-.54-.36-.54-.9-.54h-.71V59Z" transform="translate(-46.54 -37.52)"/></g></svg>